<?xml version="1.0" standalone="no"?><!DOCTYPE svg PUBLIC "-//W3C//DTD SVG 1.1//EN" "http://www.w3.org/Graphics/SVG/1.1/DTD/svg11.dtd"><svg t="1535549593328" class="icon" style="" viewBox="0 0 1024 1024" version="1.1" xmlns="http://www.w3.org/2000/svg" p-id="1775" data-spm-anchor-id="a313x.7781069.0.i2" xmlns:xlink="http://www.w3.org/1999/xlink" width="200" height="200"><defs><style type="text/css"></style></defs><path d="M908.4196736042984 592.7989148401462c-15.149797050342714 0-25.249660369730368 10.099864700228474-25.249660369730368 25.249660369730368v189.37245553465942c0 32.82455958532214-27.774627235207902 60.599185439689215-60.599185439689215 60.599185439689215H214.05400238998652c-32.82455958532214 0-60.599185439689215-27.774627235207902-60.599185439689215-60.599185439689215v-530.2428760493827c0-32.82455958532214 27.774627235207902-60.599185439689215 60.599185439689215-60.599185439689215h194.42238788477366c15.149797050342714 0 25.249660369730368-10.099864700228474 25.24966175057119-25.249660369730368s-10.099864700228474-25.249660369730368-25.24966175057119-25.24966175057119h-194.42238788477366c-60.599185439689215 0-111.09850755999078 50.499322120301564-111.09850617914998 111.09850755999078v530.2428760493827c0 60.599185439689215 50.499322120301564 111.09850755999078 111.09850617914998 111.09850755999078h611.041790889529c60.599185439689215 0 111.09850755999078-50.499322120301564 111.09850755999078-111.09850755999078v-189.37245553465942c-2.524965484636708-15.149797050342714-12.624830184865184-25.249660369730368-27.774627235207902-25.249660369730368z" fill="#707070" p-id="1776"></path><path d="M764.4966078398261 115.58032639570183c-10.099864700228474-10.099864700228474-25.249660369730368-10.099864700228474-35.34952506995885 0s-10.099864700228474 25.249660369730368 0 35.34952506995885l123.72333774485595 123.72333774485595h-133.82320244508443c-247.4466754897119 30.299592719844608-310.57082779487865 189.37245553465942-325.7206234643806 416.61940162391437 0 15.149797050342714 10.099864700228474 25.249660369730368 22.72469488509366 27.774627235207902h2.524965484636708c12.624830184865184 0 25.249660369730368-10.099864700228474 25.249660369730368-22.72469488509366 15.149797050342714-214.62211590438977 68.17408465528098-343.3953859993599 280.2712350750341-371.1700132345679h138.87313479519864L739.2469474700957 448.87584769483317c-10.099864700228474 10.099864700228474-10.099864700228474 25.249660369730368 0 35.34952506995885 5.049932350114237 5.049932350114237 12.624830184865184 7.574897834750945 17.674762534979426 7.574899215591769s12.624830184865184-2.524965484636708 17.674762534979426-7.574899215591769l143.92306576447208-143.92306576447208c10.099864700228474-10.099864700228474 15.149797050342714-22.72469488509366 15.149797050342714-35.34952506995885s-5.049932350114237-25.249660369730368-15.149797050342714-35.34952506995885L764.4966078398261 115.58032639570183z" fill="#707070" p-id="1777"></path></svg>