<?xml version="1.0" standalone="no"?><!DOCTYPE svg PUBLIC "-//W3C//DTD SVG 1.1//EN" "http://www.w3.org/Graphics/SVG/1.1/DTD/svg11.dtd"><svg t="1533558936525" class="icon" style="" viewBox="0 0 1024 1024" version="1.1" xmlns="http://www.w3.org/2000/svg" p-id="3943" xmlns:xlink="http://www.w3.org/1999/xlink" width="64" height="64"><defs><style type="text/css"></style></defs><path d="M746 188a120.53 120.53 0 0 1 120 120v282a120.53 120.53 0 0 1-120 120H640v72l-109-72H276a120.53 120.53 0 0 1-120-120V308a120.53 120.53 0 0 1 120-120h470m0-60H276c-99 0-180 81-180 180v282c0 99 81 180 180 180h236l192 125V770h42c99 0 180-81 180-180V308c0-99-81-180-180-180z" p-id="3944" fill="#FF2D7C"></path><path d="M320 448m-50 0a50 50 0 1 0 100 0 50 50 0 1 0-100 0Z" p-id="3945" fill="#FF2D7C"></path><path d="M512 448m-50 0a50 50 0 1 0 100 0 50 50 0 1 0-100 0Z" p-id="3946" fill="#FF2D7C"></path><path d="M704 448m-50 0a50 50 0 1 0 100 0 50 50 0 1 0-100 0Z" p-id="3947" fill="#FF2D7C"></path></svg>