<?xml version="1.0" standalone="no"?><!DOCTYPE svg PUBLIC "-//W3C//DTD SVG 1.1//EN" "http://www.w3.org/Graphics/SVG/1.1/DTD/svg11.dtd"><svg t="1533365777515" class="icon" style="" viewBox="0 0 1024 1024" version="1.1" xmlns="http://www.w3.org/2000/svg" p-id="8661" xmlns:xlink="http://www.w3.org/1999/xlink" width="64" height="64"><defs><style type="text/css"></style></defs><path d="M901.0688 631.8592a116.6336 116.6336 0 0 1-109.6704 77.312H329.8304a116.6336 116.6336 0 0 1-114.0736-93.696L156.0576 275.5584 111.616 49.8176H24.9344a24.8832 24.8832 0 1 1 0-49.8176h106.752a47.2064 47.2064 0 0 1 7.2704 1.4336 22.5792 22.5792 0 0 1 8.192 4.352c1.28 1.024 2.3552 2.048 3.3792 3.2768a24.9856 24.9856 0 0 1 2.56 3.84c0.8192 1.4336 1.536 2.9696 2.048 4.608 0.256 0.7168 0.768 1.28 0.9216 2.048l44.9536 221.184h740.5056a82.4832 82.4832 0 0 1 77.7728 110.08l-118.272 281.0368z m40.448-341.2992H209.92l54.7328 315.2384c6.144 31.0272 33.5872 53.504 65.2288 53.504h461.5168c28.1088 0 53.248-17.7664 62.72-44.1344l118.2208-281.088a32.1536 32.1536 0 0 0-4.1472-29.696 32.256 32.256 0 0 0-26.624-13.824zM311.808 814.3872c55.4496 0 100.5568 45.056 100.5568 100.4032a100.5568 100.5568 0 0 1-201.0624 0c0-55.3472 45.056-100.352 100.5056-100.352z m0 151.04a50.688 50.688 0 0 0 50.688-50.6368 50.688 50.688 0 0 0-101.3248 0 50.688 50.688 0 0 0 50.6368 50.688z m444.2624-151.04c55.4496 0 100.5056 45.056 100.5056 100.4032 0 55.3984-45.056 100.4544-100.5056 100.4544a100.5568 100.5568 0 0 1-100.4544-100.4544c0-55.3472 45.056-100.352 100.4544-100.352z m50.688 100.4032a50.688 50.688 0 0 0-101.3248 0 50.688 50.688 0 0 0 101.3248 0z" p-id="8662" fill="#ffffff"></path></svg>